<svg width="100" height="100" viewBox="0 0 100 100" fill="none" xmlns="http://www.w3.org/2000/svg">
<mask id="mask0_796_38" style="mask-type:alpha" maskUnits="userSpaceOnUse" x="0" y="0" width="100" height="100">
<rect width="100" height="100" fill="#D9D9D9"/>
</mask>
<g mask="url(#mask0_796_38)">
<path d="M62.5 83.3334C53.1944 83.3334 45.3125 80.1042 38.8542 73.6459C32.3958 67.1875 29.1667 59.3056 29.1667 50C29.1667 40.7639 32.3958 32.8993 38.8542 26.4063C45.3125 19.9132 53.1944 16.6667 62.5 16.6667C71.7361 16.6667 79.6007 19.9132 86.0937 26.4063C92.5868 32.8993 95.8333 40.7639 95.8333 50C95.8333 59.3056 92.5868 67.1875 86.0937 73.6459C79.6007 80.1042 71.7361 83.3334 62.5 83.3334ZM62.5 75C69.4444 75 75.3472 72.5695 80.2083 67.7084C85.0694 62.8472 87.5 56.9445 87.5 50C87.5 43.0556 85.0694 37.1528 80.2083 32.2917C75.3472 27.4306 69.4444 25 62.5 25C55.5555 25 49.6528 27.4306 44.7917 32.2917C39.9305 37.1528 37.5 43.0556 37.5 50C37.5 56.9445 39.9305 62.8472 44.7917 67.7084C49.6528 72.5695 55.5555 75 62.5 75ZM71.9791 65.5209L77.9167 59.5834L66.6667 48.3334V33.3334H58.3333V51.7709L71.9791 65.5209ZM8.33332 37.5V29.1667H25V37.5H8.33332ZM4.16666 54.1667V45.8334H25V54.1667H4.16666ZM8.33332 70.8334V62.5H25V70.8334H8.33332Z" fill="white"/>
</g>
</svg>
