<svg width="100" height="100" viewBox="0 0 100 100" fill="none" xmlns="http://www.w3.org/2000/svg">
<mask id="mask0_796_41" style="mask-type:alpha" maskUnits="userSpaceOnUse" x="0" y="0" width="100" height="100">
<rect width="100" height="100" fill="#D9D9D9"/>
</mask>
<g mask="url(#mask0_796_41)">
<path d="M50 91.6667C48.1944 91.6667 46.5625 91.2326 45.1042 90.3646C43.6458 89.4965 42.5 88.3333 41.6667 86.875C39.375 86.875 37.4132 86.059 35.7813 84.4271C34.1493 82.7951 33.3333 80.8333 33.3333 78.5417V63.75C29.2361 61.0417 25.9549 57.4653 23.4896 53.0208C21.0243 48.5764 19.7917 43.75 19.7917 38.5416C19.7917 30.1389 22.7257 23.0035 28.5938 17.1354C34.4618 11.2673 41.5972 8.33331 50 8.33331C58.4028 8.33331 65.5382 11.2673 71.4063 17.1354C77.2743 23.0035 80.2083 30.1389 80.2083 38.5416C80.2083 43.8889 78.9757 48.75 76.5104 53.125C74.0451 57.5 70.7639 61.0417 66.6667 63.75V78.5417C66.6667 80.8333 65.8507 82.7951 64.2188 84.4271C62.5868 86.059 60.625 86.875 58.3333 86.875C57.5 88.3333 56.3542 89.4965 54.8958 90.3646C53.4375 91.2326 51.8056 91.6667 50 91.6667ZM41.6667 78.5417H58.3333V74.7916H41.6667V78.5417ZM41.6667 70.625H58.3333V66.6666H41.6667V70.625ZM40.8333 58.3333H46.875V47.0833L37.7083 37.9166L42.0833 33.5416L50 41.4583L57.9167 33.5416L62.2917 37.9166L53.125 47.0833V58.3333H59.1667C62.9167 56.5278 65.9722 53.8715 68.3333 50.3646C70.6944 46.8576 71.875 42.9166 71.875 38.5416C71.875 32.4305 69.7569 27.2569 65.5208 23.0208C61.2847 18.7847 56.1111 16.6666 50 16.6666C43.8889 16.6666 38.7153 18.7847 34.4792 23.0208C30.2431 27.2569 28.125 32.4305 28.125 38.5416C28.125 42.9166 29.3056 46.8576 31.6667 50.3646C34.0278 53.8715 37.0833 56.5278 40.8333 58.3333Z" fill="white"/>
</g>
</svg>
