<svg width="24" height="24" viewBox="0 0 24 24" fill="none" xmlns="http://www.w3.org/2000/svg">
<path d="M12 1.56332C12 0.699923 11.2972 -0.0104827 10.4411 0.101683C8.62042 0.340228 6.87145 0.994508 5.33316 2.02236C3.35977 3.34094 1.8217 5.21509 0.913446 7.4078C0.00519403 9.60051 -0.232446 12.0133 0.230577 14.3411C0.693599 16.6689 1.83649 18.8071 3.51472 20.4853C5.19295 22.1635 7.33114 23.3064 9.65892 23.7694C11.9867 24.2324 14.3995 23.9948 16.5922 23.0866C18.7849 22.1783 20.6591 20.6402 21.9776 18.6668C23.0055 17.1285 23.6598 15.3796 23.8983 13.5589C24.0105 12.7028 23.3001 12 22.4367 12V12C21.5733 12 20.8873 12.7052 20.736 13.5553C20.5222 14.7563 20.0619 15.9061 19.3779 16.9298C18.4029 18.389 17.0171 19.5263 15.3957 20.1979C13.7743 20.8695 11.9902 21.0452 10.2689 20.7029C8.54763 20.3605 6.96655 19.5154 5.72559 18.2744C4.48463 17.0335 3.63952 15.4524 3.29714 13.7311C2.95476 12.0098 3.13048 10.2257 3.80209 8.60431C4.47369 6.98292 5.61101 5.59709 7.07023 4.62207C8.09387 3.9381 9.24366 3.47783 10.4447 3.264C11.2948 3.11266 12 2.42672 12 1.56332V1.56332Z" fill="#FFA552"/>
<mask id="mask0_91_2" style="mask-type:alpha" maskUnits="userSpaceOnUse" x="6" y="6" width="12" height="12">
<rect x="6" y="6" width="12" height="12" fill="#D9D9D9"/>
</mask>
<g mask="url(#mask0_91_2)">
<path d="M10.5 7.5V6.5H13.5V7.5H10.5ZM11.5 13H12.5V10H11.5V13ZM12 17C11.3833 17 10.802 16.8813 10.256 16.644C9.71033 16.4063 9.23333 16.0833 8.825 15.675C8.41667 15.2667 8.09367 14.7897 7.856 14.244C7.61867 13.698 7.5 13.1167 7.5 12.5C7.5 11.8833 7.61867 11.302 7.856 10.756C8.09367 10.2103 8.41667 9.73333 8.825 9.325C9.23333 8.91667 9.71033 8.59383 10.256 8.3565C10.802 8.11883 11.3833 8 12 8C12.5167 8 13.0125 8.08333 13.4875 8.25C13.9625 8.41667 14.4083 8.65833 14.825 8.975L15.525 8.275L16.225 8.975L15.525 9.675C15.8417 10.0917 16.0833 10.5375 16.25 11.0125C16.4167 11.4875 16.5 11.9833 16.5 12.5C16.5 13.1167 16.3813 13.698 16.144 14.244C15.9063 14.7897 15.5833 15.2667 15.175 15.675C14.7667 16.0833 14.2897 16.4063 13.744 16.644C13.198 16.8813 12.6167 17 12 17ZM12 16C12.9667 16 13.7917 15.6583 14.475 14.975C15.1583 14.2917 15.5 13.4667 15.5 12.5C15.5 11.5333 15.1583 10.7083 14.475 10.025C13.7917 9.34167 12.9667 9 12 9C11.0333 9 10.2083 9.34167 9.525 10.025C8.84167 10.7083 8.5 11.5333 8.5 12.5C8.5 13.4667 8.84167 14.2917 9.525 14.975C10.2083 15.6583 11.0333 16 12 16Z" fill="#FFA552"/>
</g>
</svg>
