<svg xmlns="http://www.w3.org/2000/svg" width="28" height="28" viewBox="0 0 28 28" fill="none">
<path d="M18.69 20.5449C16.5801 22.1826 13.9255 22.9547 11.2664 22.7041C8.60735 22.4534 6.14373 21.1989 4.37704 19.1958C2.61036 17.1927 1.67341 14.5917 1.75691 11.9221C1.84041 9.25259 2.93809 6.71519 4.8265 4.82644C6.71525 2.93803 9.25265 1.84035 11.9222 1.75685C14.5918 1.67335 17.1928 2.6103 19.1959 4.37698C21.199 6.14367 22.4535 8.60729 22.7041 11.2664C22.9548 13.9254 22.1827 16.5801 20.545 18.6899L25.865 24.0099C26.0378 24.1704 26.1641 24.3744 26.2306 24.6006C26.2971 24.8268 26.3014 25.0667 26.243 25.2952C26.1846 25.5236 26.0657 25.732 25.8987 25.8985C25.7318 26.065 25.5231 26.1834 25.2945 26.2412C25.0663 26.2997 24.8266 26.2956 24.6006 26.2294C24.3746 26.1632 24.1706 26.0373 24.01 25.8649L18.69 20.5449ZM20.125 12.2499C20.1406 11.2063 19.9484 10.1699 19.5598 9.20112C19.1712 8.23237 18.5938 7.35056 17.8612 6.60699C17.1286 5.86343 16.2555 5.27295 15.2927 4.86991C14.3298 4.46687 13.2964 4.25932 12.2526 4.25932C11.2088 4.25932 10.1754 4.46687 9.21258 4.86991C8.24972 5.27295 7.37662 5.86343 6.64405 6.60699C5.91149 7.35056 5.3341 8.23237 4.94546 9.20112C4.55682 10.1699 4.36469 11.2063 4.38025 12.2499C4.41108 14.3175 5.25405 16.2899 6.72705 17.7411C8.20006 19.1923 10.1848 20.0058 12.2526 20.0058C14.3204 20.0058 16.3052 19.1923 17.7782 17.7411C19.2512 16.2899 20.0942 14.3175 20.125 12.2499Z" fill="#F8F8F8"/>
</svg>