<svg xmlns="http://www.w3.org/2000/svg" width="23" height="20" viewBox="0 0 23 20" fill="none">
  <path d="M1.24637 1.87012C1.24637 1.70436 1.31222 1.54539 1.42943 1.42818C1.54664 1.31097 1.70561 1.24512 1.87137 1.24512H2.41887C3.32762 1.24512 3.85012 1.83637 4.15262 2.42637C4.35887 2.83012 4.50762 3.32262 4.63137 3.75012H17.5001C17.6933 3.75017 17.8838 3.79499 18.0567 3.88105C18.2296 3.9671 18.3802 4.09206 18.4967 4.24611C18.6132 4.40016 18.6925 4.57911 18.7282 4.76893C18.7639 4.95874 18.7552 5.15425 18.7026 5.34012L16.8326 11.9339C16.6839 12.457 16.3686 12.9174 15.9346 13.2451C15.5006 13.5729 14.9715 13.7502 14.4276 13.7501H8.07887C7.53046 13.7503 6.99721 13.5702 6.56126 13.2374C6.12532 12.9047 5.81087 12.4379 5.66637 11.9089L4.86387 8.96512C4.85927 8.95192 4.8551 8.93858 4.85137 8.92512L3.56262 4.55387L3.43762 4.13262C3.31262 3.70012 3.20262 3.31762 3.03762 2.99637C2.83887 2.60887 2.65637 2.49637 2.41762 2.49637H1.87012C1.70436 2.49637 1.54539 2.43052 1.42818 2.31331C1.31097 2.1961 1.24512 2.03713 1.24512 1.87137L1.24637 1.87012ZM8.12512 18.7501C8.6224 18.7501 9.09931 18.5526 9.45094 18.2009C9.80257 17.8493 10.0001 17.3724 10.0001 16.8751C10.0001 16.3778 9.80257 15.9009 9.45094 15.5493C9.09931 15.1977 8.6224 15.0001 8.12512 15.0001C7.62784 15.0001 7.15092 15.1977 6.79929 15.5493C6.44766 15.9009 6.25012 16.3778 6.25012 16.8751C6.25012 17.3724 6.44766 17.8493 6.79929 18.2009C7.15092 18.5526 7.62784 18.7501 8.12512 18.7501ZM14.3751 18.7501C14.8724 18.7501 15.3493 18.5526 15.7009 18.2009C16.0526 17.8493 16.2501 17.3724 16.2501 16.8751C16.2501 16.3778 16.0526 15.9009 15.7009 15.5493C15.3493 15.1977 14.8724 15.0001 14.3751 15.0001C13.8778 15.0001 13.4009 15.1977 13.0493 15.5493C12.6977 15.9009 12.5001 16.3778 12.5001 16.8751C12.5001 17.3724 12.6977 17.8493 13.0493 18.2009C13.4009 18.5526 13.8778 18.7501 14.3751 18.7501Z" fill="#F8F8F8"/>
</svg>